<svg width="15" height="15" viewBox="0 0 15 15" fill="none" xmlns="http://www.w3.org/2000/svg">
<path d="M13.125 10.001V4.99831C13.1248 4.83457 13.0817 4.67373 13 4.53182C12.9184 4.3899 12.8009 4.27185 12.6595 4.18942L8.20635 1.59782C7.9918 1.47291 7.74797 1.4071 7.49971 1.4071C7.25144 1.4071 7.00762 1.47291 6.79307 1.59782L2.34053 4.18942C2.19905 4.27185 2.08163 4.3899 1.99996 4.53182C1.91828 4.67373 1.8752 4.83457 1.875 4.99831V10.001C1.8751 10.1649 1.91813 10.3258 1.99981 10.4679C2.08149 10.6099 2.19896 10.728 2.34053 10.8105L6.79365 13.4021C7.00826 13.5268 7.25207 13.5926 7.50029 13.5926C7.74852 13.5926 7.99232 13.5268 8.20693 13.4021L12.6601 10.8105C12.8015 10.728 12.9189 10.6098 13.0004 10.4678C13.082 10.3257 13.125 10.1648 13.125 10.001Z" stroke="black" stroke-width="0.9375" stroke-linecap="round" stroke-linejoin="round"/>
<path d="M2.02148 4.51147L7.5 7.73413M7.5 7.73413L12.9785 4.51147M7.5 7.73413V13.5935" stroke="black" stroke-width="0.9375" stroke-linecap="round" stroke-linejoin="round"/>
<path d="M7.5 4.92188C7.88833 4.92188 8.20312 4.71201 8.20312 4.45312C8.20312 4.19424 7.88833 3.98438 7.5 3.98438C7.11167 3.98438 6.79688 4.19424 6.79688 4.45312C6.79688 4.71201 7.11167 4.92188 7.5 4.92188Z" fill="black"/>
<path d="M6.09375 9.375C6.35263 9.375 6.5625 9.0602 6.5625 8.67188C6.5625 8.28355 6.35263 7.96875 6.09375 7.96875C5.83487 7.96875 5.625 8.28355 5.625 8.67188C5.625 9.0602 5.83487 9.375 6.09375 9.375Z" fill="black"/>
<path d="M3.28125 10.3125C3.54013 10.3125 3.75 9.9977 3.75 9.60938C3.75 9.22105 3.54013 8.90625 3.28125 8.90625C3.02237 8.90625 2.8125 9.22105 2.8125 9.60938C2.8125 9.9977 3.02237 10.3125 3.28125 10.3125Z" fill="black"/>
<path d="M8.90625 9.375C9.16513 9.375 9.375 9.0602 9.375 8.67188C9.375 8.28355 9.16513 7.96875 8.90625 7.96875C8.64737 7.96875 8.4375 8.28355 8.4375 8.67188C8.4375 9.0602 8.64737 9.375 8.90625 9.375Z" fill="black"/>
<path d="M11.7188 7.73438C11.9776 7.73438 12.1875 7.41958 12.1875 7.03125C12.1875 6.64292 11.9776 6.32812 11.7188 6.32812C11.4599 6.32812 11.25 6.64292 11.25 7.03125C11.25 7.41958 11.4599 7.73438 11.7188 7.73438Z" fill="black"/>
<path d="M8.90625 11.9531C9.16513 11.9531 9.375 11.6383 9.375 11.25C9.375 10.8617 9.16513 10.5469 8.90625 10.5469C8.64737 10.5469 8.4375 10.8617 8.4375 11.25C8.4375 11.6383 8.64737 11.9531 8.90625 11.9531Z" fill="black"/>
<path d="M11.7188 10.3125C11.9776 10.3125 12.1875 9.9977 12.1875 9.60938C12.1875 9.22105 11.9776 8.90625 11.7188 8.90625C11.4599 8.90625 11.25 9.22105 11.25 9.60938C11.25 9.9977 11.4599 10.3125 11.7188 10.3125Z" fill="black"/>
</svg>
